<?xml version="1.0" standalone="no"?>
<!DOCTYPE svg PUBLIC "-//W3C//DTD SVG 20010904//EN"
 "http://www.w3.org/TR/2001/REC-SVG-20010904/DTD/svg10.dtd">
<svg version="1.0" xmlns="http://www.w3.org/2000/svg"
 width="64.000000pt" height="35.000000pt" viewBox="0 0 64.000000 35.000000"
 preserveAspectRatio="xMidYMid meet">
<metadata>
Created by potrace 1.14, written by Peter Selinger 2001-2017
</metadata>
<g transform="translate(0.000000,35.000000) scale(0.100000,-0.100000)"
fill="#008100" stroke="none">
<path d="M0 295 l0 -55 35 0 c25 0 41 7 57 25 12 14 31 25 43 25 12 0 36 -11
55 -25 40 -30 78 -32 111 -6 41 32 62 33 99 6 41 -30 69 -32 103 -5 31 25 51
25 74 1 10 -10 28 -21 41 -24 21 -5 22 -2 22 54 l0 59 -320 0 -320 0 0 -55z"/>
<path d="M605 110 c-12 -4 -27 -15 -34 -24 -18 -21 -37 -20 -68 4 -31 24 -76
26 -94 4 -26 -31 -52 -33 -96 -8 -53 30 -81 30 -123 -1 -19 -14 -43 -25 -55
-25 -12 0 -31 11 -43 25 -16 18 -32 25 -57 25 l-35 0 0 -55 0 -55 320 0 320 0
0 60 c0 62 -1 64 -35 50z"/>
</g>
</svg>
