<?xml version="1.0" standalone="no"?>
<!DOCTYPE svg PUBLIC "-//W3C//DTD SVG 20010904//EN"
 "http://www.w3.org/TR/2001/REC-SVG-20010904/DTD/svg10.dtd">
<svg version="1.0" xmlns="http://www.w3.org/2000/svg"
 width="64.000000pt" height="35.000000pt" viewBox="0 0 64.000000 35.000000"
 preserveAspectRatio="xMidYMid meet">
<metadata>
Created by potrace 1.14, written by Peter Selinger 2001-2017
</metadata>
<g transform="translate(0.000000,35.000000) scale(0.100000,-0.100000)"
fill="#008100" stroke="none">
<path d="M0 175 l0 -175 320 0 320 0 0 175 0 175 -320 0 -320 0 0 -175z m334
130 l79 -26 23 22 c14 13 30 19 39 15 14 -5 12 -12 -14 -45 -17 -21 -31 -42
-31 -46 0 -4 29 -4 64 0 95 10 101 -25 6 -40 -50 -8 -80 -21 -80 -35 0 -5 20
-21 45 -36 49 -28 59 -58 23 -70 -18 -5 -30 2 -64 42 -24 27 -46 45 -51 41 -4
-5 -17 -27 -28 -50 -13 -28 -27 -43 -43 -45 -33 -5 -38 23 -10 61 44 57 46 56
-55 50 -166 -10 -182 -9 -182 7 0 15 12 17 163 36 51 6 51 24 1 37 -42 11 -57
23 -42 38 7 7 28 6 71 -5 109 -29 140 -13 39 20 -58 19 -79 32 -71 45 8 14 33
11 118 -16z"/>
</g>
</svg>
