<?xml version="1.0" standalone="no"?>
<!DOCTYPE svg PUBLIC "-//W3C//DTD SVG 20010904//EN"
 "http://www.w3.org/TR/2001/REC-SVG-20010904/DTD/svg10.dtd">
<svg version="1.0" xmlns="http://www.w3.org/2000/svg"
 width="64.000000pt" height="35.000000pt" viewBox="0 0 64.000000 35.000000"
 preserveAspectRatio="xMidYMid meet">
<metadata>
Created by potrace 1.14, written by Peter Selinger 2001-2017
</metadata>
<g transform="translate(0.000000,35.000000) scale(0.100000,-0.100000)"
fill="#008100" stroke="none">
<path d="M0 175 l0 -175 320 0 320 0 0 175 0 175 -320 0 -320 0 0 -175z m432
97 c35 -38 38 -46 38 -97 0 -51 -3 -59 -39 -98 -39 -41 -41 -42 -106 -42 -65
0 -67 1 -106 42 -36 39 -39 47 -39 97 0 48 4 60 32 92 41 47 61 55 127 50 49
-3 58 -7 93 -44z"/>
</g>
</svg>
