<?xml version="1.0" standalone="no"?>
<!DOCTYPE svg PUBLIC "-//W3C//DTD SVG 20010904//EN"
 "http://www.w3.org/TR/2001/REC-SVG-20010904/DTD/svg10.dtd">
<svg version="1.0" xmlns="http://www.w3.org/2000/svg"
 width="64.000000pt" height="35.000000pt" viewBox="0 0 64.000000 35.000000"
 preserveAspectRatio="xMidYMid meet">
<metadata>
Created by potrace 1.14, written by Peter Selinger 2001-2017
</metadata>
<g transform="translate(0.000000,35.000000) scale(0.100000,-0.100000)"
fill="#008100" stroke="none">
<path d="M315 309 c-28 -60 -64 -85 -143 -99 -105 -17 -124 -33 -150 -123 -12
-41 -22 -78 -22 -81 0 -3 59 -6 130 -6 l130 0 -15 38 c-15 37 -48 72 -67 72
-6 0 -6 -6 1 -14 10 -12 8 -18 -12 -31 -41 -27 -103 0 -95 42 6 33 46 43 153
36 94 -5 106 -4 187 24 48 17 119 49 158 72 65 39 70 44 70 76 l0 35 -153 0
-154 0 -18 -41z"/>
<path d="M565 142 c-56 -20 -88 -25 -162 -25 -76 1 -94 -2 -108 -17 -23 -26
-5 -57 48 -81 34 -15 66 -19 170 -19 l127 0 0 85 c0 47 -1 84 -2 84 -2 -1 -34
-13 -73 -27z"/>
</g>
</svg>
