<?xml version="1.0" standalone="no"?>
<!DOCTYPE svg PUBLIC "-//W3C//DTD SVG 20010904//EN"
 "http://www.w3.org/TR/2001/REC-SVG-20010904/DTD/svg10.dtd">
<svg version="1.0" xmlns="http://www.w3.org/2000/svg"
 width="64.000000pt" height="35.000000pt" viewBox="0 0 64.000000 35.000000"
 preserveAspectRatio="xMidYMid meet">
<metadata>
Created by potrace 1.14, written by Peter Selinger 2001-2017
</metadata>
<g transform="translate(0.000000,35.000000) scale(0.100000,-0.100000)"
fill="#008100" stroke="none">
<path d="M0 175 l0 -175 320 0 320 0 0 175 0 175 -320 0 -320 0 0 -175z m458
103 c3 -21 9 -27 30 -30 26 -3 27 -5 27 -68 0 -63 -1 -65 -27 -68 -24 -3 -28
-8 -28 -33 l0 -30 -137 3 -138 3 -3 27 c-3 21 -9 27 -30 30 -26 3 -27 5 -27
68 0 60 2 65 23 68 15 2 22 10 22 26 0 12 3 26 7 30 4 3 68 5 142 4 l136 -3 3
-27z"/>
</g>
</svg>
