<?xml version="1.0" standalone="no"?>
<!DOCTYPE svg PUBLIC "-//W3C//DTD SVG 20010904//EN"
 "http://www.w3.org/TR/2001/REC-SVG-20010904/DTD/svg10.dtd">
<svg version="1.0" xmlns="http://www.w3.org/2000/svg"
 width="64.000000pt" height="35.000000pt" viewBox="0 0 64.000000 35.000000"
 preserveAspectRatio="xMidYMid meet">
<metadata>
Created by potrace 1.14, written by Peter Selinger 2001-2017
</metadata>
<g transform="translate(0.000000,35.000000) scale(0.100000,-0.100000)"
fill="#008100" stroke="none">
<path d="M0 175 l0 -175 320 0 320 0 0 175 0 175 -320 0 -320 0 0 -175z m284
100 c9 -25 55 -38 87 -25 15 7 30 18 33 26 3 8 16 14 29 14 31 0 49 -20 37
-40 -16 -25 -11 -40 13 -40 28 0 67 -26 67 -45 0 -17 -31 -35 -60 -35 -17 0
-21 -5 -19 -28 6 -56 -36 -71 -78 -26 -20 21 -30 25 -56 20 -17 -3 -41 -16
-53 -27 -14 -13 -32 -19 -50 -17 -26 3 -30 8 -34 43 -5 37 -7 40 -38 41 -42 1
-56 16 -48 48 5 20 13 25 44 28 31 3 37 7 40 28 2 14 5 31 7 38 6 18 72 15 79
-3z"/>
</g>
</svg>
