<?xml version="1.0" standalone="no"?>
<!DOCTYPE svg PUBLIC "-//W3C//DTD SVG 20010904//EN"
 "http://www.w3.org/TR/2001/REC-SVG-20010904/DTD/svg10.dtd">
<svg version="1.0" xmlns="http://www.w3.org/2000/svg"
 width="64.000000pt" height="35.000000pt" viewBox="0 0 64.000000 35.000000"
 preserveAspectRatio="xMidYMid meet">
<metadata>
Created by potrace 1.14, written by Peter Selinger 2001-2017
</metadata>
<g transform="translate(0.000000,35.000000) scale(0.100000,-0.100000)"
fill="#008100" stroke="none">
<path d="M0 175 l0 -175 160 0 c177 0 173 -1 146 64 -18 44 -50 67 -147 107
-44 18 -91 43 -104 55 -23 21 -53 99 -43 109 3 3 29 -7 59 -22 50 -25 66 -27
231 -34 189 -8 230 -18 305 -75 l33 -25 0 85 0 86 -320 0 -320 0 0 -175z"/>
</g>
</svg>
