<?xml version="1.0" standalone="no"?>
<!DOCTYPE svg PUBLIC "-//W3C//DTD SVG 20010904//EN"
 "http://www.w3.org/TR/2001/REC-SVG-20010904/DTD/svg10.dtd">
<svg version="1.0" xmlns="http://www.w3.org/2000/svg"
 width="64.000000pt" height="35.000000pt" viewBox="0 0 64.000000 35.000000"
 preserveAspectRatio="xMidYMid meet">
<metadata>
Created by potrace 1.14, written by Peter Selinger 2001-2017
</metadata>
<g transform="translate(0.000000,35.000000) scale(0.100000,-0.100000)"
fill="#008100" stroke="none">
<path d="M0 175 l0 -175 320 0 320 0 0 175 0 175 -320 0 -320 0 0 -175z m388
115 c38 -23 84 -92 112 -167 28 -75 25 -83 -13 -41 -19 20 -45 40 -60 43 -27
7 -31 5 -133 -63 -41 -27 -55 -32 -84 -27 -54 10 -73 35 -78 105 -4 52 -1 66
21 98 14 21 40 46 58 55 48 23 136 22 177 -3z"/>
</g>
</svg>
