<?xml version="1.0" standalone="no"?>
<!DOCTYPE svg PUBLIC "-//W3C//DTD SVG 20010904//EN"
 "http://www.w3.org/TR/2001/REC-SVG-20010904/DTD/svg10.dtd">
<svg version="1.0" xmlns="http://www.w3.org/2000/svg"
 width="64.000000pt" height="35.000000pt" viewBox="0 0 64.000000 35.000000"
 preserveAspectRatio="xMidYMid meet">
<metadata>
Created by potrace 1.14, written by Peter Selinger 2001-2017
</metadata>
<g transform="translate(0.000000,35.000000) scale(0.100000,-0.100000)"
fill="#008100" stroke="none">
<path d="M87 343 c-19 -18 -4 -63 38 -112 41 -48 44 -56 39 -91 -5 -33 -2 -42
21 -66 25 -25 31 -26 99 -22 62 4 82 10 142 46 50 30 89 44 142 53 l72 12 0
62 0 63 -44 11 c-81 20 -110 15 -161 -29 -56 -49 -85 -57 -144 -41 -66 18 -84
37 -76 83 l7 38 -64 0 c-36 0 -68 -3 -71 -7z"/>
</g>
</svg>
