<?xml version="1.0" standalone="no"?>
<!DOCTYPE svg PUBLIC "-//W3C//DTD SVG 20010904//EN"
 "http://www.w3.org/TR/2001/REC-SVG-20010904/DTD/svg10.dtd">
<svg version="1.0" xmlns="http://www.w3.org/2000/svg"
 width="64.000000pt" height="35.000000pt" viewBox="0 0 64.000000 35.000000"
 preserveAspectRatio="xMidYMid meet">
<metadata>
Created by potrace 1.14, written by Peter Selinger 2001-2017
</metadata>
<g transform="translate(0.000000,35.000000) scale(0.100000,-0.100000)"
fill="#008100" stroke="none">
<path d="M104 291 c-39 -24 -58 -69 -52 -125 7 -58 39 -99 108 -135 51 -27 68
-31 136 -31 l79 0 -65 35 c-124 67 -155 134 -76 165 62 23 122 -11 156 -87 17
-40 22 -43 57 -43 21 0 73 12 116 27 l77 28 0 92 0 92 -47 -21 c-76 -33 -172
-34 -272 -4 -101 31 -174 33 -217 7z"/>
</g>
</svg>
