<?xml version="1.0" standalone="no"?>
<!DOCTYPE svg PUBLIC "-//W3C//DTD SVG 20010904//EN"
 "http://www.w3.org/TR/2001/REC-SVG-20010904/DTD/svg10.dtd">
<svg version="1.0" xmlns="http://www.w3.org/2000/svg"
 width="64.000000pt" height="35.000000pt" viewBox="0 0 64.000000 35.000000"
 preserveAspectRatio="xMidYMid meet">
<metadata>
Created by potrace 1.14, written by Peter Selinger 2001-2017
</metadata>
<g transform="translate(0.000000,35.000000) scale(0.100000,-0.100000)"
fill="#008100" stroke="none">
<path d="M180 320 c0 -23 -14 -46 -60 -95 -53 -57 -60 -69 -60 -106 0 -32 6
-47 29 -70 25 -24 37 -29 80 -29 46 0 56 4 95 40 48 44 63 47 126 25 72 -25
102 -20 144 25 29 32 44 40 71 40 l35 0 0 100 0 100 -230 0 -230 0 0 -30z"/>
</g>
</svg>
